<svg width="22" height="20" viewBox="0 0 22 20" fill="none" xmlns="http://www.w3.org/2000/svg">
<path d="M16.2006 0C13.7929 0 11.8043 2.24787 11.0001 3.30877C10.1959 2.24787 8.20724 0 5.79949 0C2.68255 0 0.146729 2.88042 0.146729 6.42046C0.146729 8.35183 0.909429 10.1518 2.24443 11.3836C2.26385 11.4174 2.28772 11.4484 2.31553 11.4764L10.6808 19.8673C10.7691 19.9556 10.8844 20 11.0001 20C11.1158 20 11.2315 19.9556 11.3198 19.8668L19.9633 11.1821L20.0525 11.0951C20.1231 11.0281 20.1929 10.9601 20.2711 10.8732C20.3037 10.8408 20.3307 10.8043 20.3514 10.7648C21.3208 9.57165 21.8534 8.03266 21.8534 6.42046C21.8534 2.88042 19.3176 0 16.2006 0ZM19.5989 10.2535C19.5865 10.2681 19.575 10.2836 19.5649 10.2996C19.5225 10.3485 19.4761 10.3915 19.4302 10.4355L10.9996 18.9031L3.05792 10.9366C3.03232 10.886 2.99653 10.8398 2.95282 10.8012C1.74408 9.74031 1.05116 8.14362 1.05116 6.42046C1.05116 3.38156 3.18112 0.909118 5.79949 0.909118C8.38831 0.909118 10.5977 4.30312 10.6198 4.3373C10.7868 4.59651 11.2134 4.59651 11.3803 4.3373C11.4024 4.30312 13.6118 0.909118 16.2006 0.909118C18.819 0.909118 20.949 3.3816 20.949 6.42046C20.949 7.85245 20.4693 9.21386 19.5989 10.2535Z" fill="#C9CACE"/>
</svg>
