<svg width="20" height="20" viewBox="0 0 20 20" fill="none" xmlns="http://www.w3.org/2000/svg">
<path d="M18.9436 8.78182L10.1093 0.189532C9.85197 -0.0631774 9.4415 -0.0631774 9.18414 0.189532L0.350217 8.78148C0.220164 8.90792 0.146729 9.08217 0.146729 9.26426C0.146729 9.63485 0.444967 9.93524 0.812812 9.93524H1.98678V19.329C1.98678 19.6996 2.28498 20 2.65287 20H7.31545C7.68333 20 7.98153 19.6996 7.98153 19.329V13.9611H11.3119V19.329C11.3119 19.6996 11.6101 20 11.978 20H16.6406C17.0085 20 17.3067 19.6996 17.3067 19.329V9.93524H18.4807C18.6613 9.93524 18.8341 9.86139 18.9596 9.73059C19.2152 9.46412 19.2081 9.03935 18.9436 8.78182ZM17.3067 9.26426C16.9388 9.26426 16.6406 9.56465 16.6406 9.93524V19.329H11.978V13.9611C11.978 13.5906 11.6798 13.2902 11.3119 13.2902H7.98153C7.61364 13.2902 7.31545 13.5906 7.31545 13.9611V19.329H2.65287V9.93524C2.65287 9.56465 2.35467 9.26426 1.98678 9.26426H0.812812L9.64674 0.672305L18.484 9.26426H17.3067V9.26426Z" fill="#C9CACE"/>
</svg>
