<svg width="23" height="20" viewBox="0 0 23 20" fill="none" xmlns="http://www.w3.org/2000/svg">
<path d="M2.94141 11.9596H17.5981C17.7761 11.9596 17.9204 11.8212 17.9204 11.6504C17.9204 11.4796 17.7761 11.3412 17.5981 11.3412H2.94141C2.76343 11.3412 2.61914 11.4796 2.61914 11.6504C2.61914 11.8212 2.76343 11.9596 2.94141 11.9596Z" fill="#C9CACE"/>
<path d="M2.94141 9.08109H11.8606C12.0386 9.08109 12.1829 8.94268 12.1829 8.77187C12.1829 8.60105 12.0386 8.46265 11.8606 8.46265H2.94141C2.76343 8.46265 2.61914 8.60105 2.61914 8.77187C2.61914 8.94268 2.76343 9.08109 2.94141 9.08109Z" fill="#C9CACE"/>
<path d="M2.94141 6.20249H11.8606C12.0386 6.20249 12.1829 6.06408 12.1829 5.89327C12.1829 5.72245 12.0386 5.58405 11.8606 5.58405H2.94141C2.76343 5.58405 2.61914 5.72245 2.61914 5.89327C2.61914 6.06408 2.76343 6.20249 2.94141 6.20249Z" fill="#C9CACE"/>
<path d="M17.814 0.5C15.4249 0.5 13.4812 2.36497 13.4812 4.65736C13.4812 6.94979 15.4249 8.81476 17.814 8.81476C20.2031 8.81476 22.1467 6.94975 22.1467 4.65736C22.1467 2.36497 20.2031 0.5 17.814 0.5ZM17.814 8.19632C15.7802 8.19632 14.1257 6.60874 14.1257 4.65736C14.1257 2.70602 15.7803 1.11844 17.814 1.11844C19.8476 1.11844 21.5022 2.70598 21.5022 4.65736C21.5022 6.60874 19.8476 8.19632 17.814 8.19632Z" fill="#C9CACE"/>
<path d="M20.0708 9.00993C19.8928 9.00993 19.7485 9.14833 19.7485 9.31915V13.0357C19.7485 13.9121 19.0054 14.6252 18.092 14.6252H9.91198C9.5418 14.6252 9.19659 14.8161 9.01105 15.1235L6.81552 18.7605C6.71824 18.9217 6.47568 18.9221 6.37814 18.7605L4.18265 15.1235C3.99712 14.8161 3.6519 14.6252 3.28173 14.6252H2.44779C1.53436 14.6251 0.79126 13.9121 0.79126 13.0357V4.59583C0.79126 3.71938 1.53436 3.00632 2.44779 3.00632H12.7898C12.9677 3.00632 13.112 2.86791 13.112 2.6971C13.112 2.52629 12.9677 2.38788 12.7898 2.38788H2.44779C1.17897 2.38792 0.146729 3.37837 0.146729 4.59583V13.0356C0.146729 14.2531 1.17897 15.2436 2.44779 15.2436H3.28169C3.42271 15.2436 3.55424 15.3163 3.62492 15.4334L5.82041 19.0705C6.16588 19.6428 7.02731 19.6436 7.37321 19.0705L9.56874 15.4334C9.63943 15.3163 9.77096 15.2436 9.91198 15.2436H18.092C19.3608 15.2436 20.393 14.2531 20.393 13.0356V9.31911C20.393 9.14833 20.2488 9.00993 20.0708 9.00993Z" fill="#C9CACE"/>
</svg>
