<svg width="20" height="20" viewBox="0 0 20 20" fill="none" xmlns="http://www.w3.org/2000/svg">
<path d="M10.3532 10.0245C5.11502 10.0245 0.853271 14.0982 0.853271 19.1052C0.853271 19.3231 1.03833 19.5 1.26633 19.5C1.49433 19.5 1.67938 19.3231 1.67938 19.1052C1.67938 14.5332 5.57024 10.8141 10.3533 10.8141C15.1363 10.8141 19.0272 14.5332 19.0272 19.1052C19.0272 19.3231 19.2122 19.5 19.4402 19.5C19.6682 19.5 19.8533 19.3231 19.8533 19.1052C19.8532 14.0974 15.5914 10.0245 10.3532 10.0245Z" fill="#BFBDB9"/>
<path d="M10.3533 0.5C7.84857 0.5 5.80981 2.448 5.80981 4.84293C5.80981 7.23787 7.84861 9.18586 10.3533 9.18586C12.8579 9.18586 14.8967 7.23787 14.8967 4.84293C14.8967 2.448 12.858 0.5 10.3533 0.5ZM10.3533 8.39625C8.30375 8.39625 6.63589 6.80199 6.63589 4.84293C6.63589 2.88387 8.30375 1.28961 10.3533 1.28961C12.4028 1.28961 14.0707 2.88387 14.0707 4.84293C14.0707 6.80199 12.4028 8.39625 10.3533 8.39625Z" fill="#BFBDB9"/>
</svg>
